<svg width="39" height="36" viewBox="0 0 39 36" fill="none" xmlns="http://www.w3.org/2000/svg">
<path d="M5 5.66406V0.664062H8.33333V5.66406H13.3333V8.9974H8.33333V13.9974H5V8.9974H0V5.66406H5ZM10 15.6641V10.6641H15V5.66406H26.6667L29.7167 8.9974H35C36.8333 8.9974 38.3333 10.4974 38.3333 12.3307V32.3307C38.3333 34.1641 36.8333 35.6641 35 35.6641H8.33333C6.5 35.6641 5 34.1641 5 32.3307V15.6641H10ZM21.6667 30.6641C26.2667 30.6641 30 26.9307 30 22.3307C30 17.7307 26.2667 13.9974 21.6667 13.9974C17.0667 13.9974 13.3333 17.7307 13.3333 22.3307C13.3333 26.9307 17.0667 30.6641 21.6667 30.6641ZM16.3333 22.3307C16.3333 25.2807 18.7167 27.6641 21.6667 27.6641C24.6167 27.6641 27 25.2807 27 22.3307C27 19.3807 24.6167 16.9974 21.6667 16.9974C18.7167 16.9974 16.3333 19.3807 16.3333 22.3307Z" fill="#4B4B4B"/>
</svg>
