<svg width="28" height="29" viewBox="0 0 28 29" fill="none" xmlns="http://www.w3.org/2000/svg">
<path d="M6.1941 21.9629L16.076 16.9486L21.017 6.91988L11.1351 11.9342L6.1941 21.9629ZM13.6055 15.8948C13.1998 15.8948 12.8599 15.7553 12.5858 15.4762C12.3109 15.1981 12.1734 14.8532 12.1734 14.4414C12.1734 14.0296 12.3109 13.6842 12.5858 13.4051C12.8599 13.127 13.1998 12.988 13.6055 12.988C14.0113 12.988 14.3517 13.127 14.6267 13.4051C14.9007 13.6842 15.0377 14.0296 15.0377 14.4414C15.0377 14.8532 14.9007 15.1981 14.6267 15.4762C14.3517 15.7553 14.0113 15.8948 13.6055 15.8948ZM13.6055 28.249C11.7199 28.249 9.9478 27.8856 8.28935 27.1589C6.62996 26.4322 5.19159 25.4511 3.97425 24.2157C2.75691 22.9803 1.7902 21.5206 1.07412 19.8365C0.35804 18.1535 0 16.3551 0 14.4414C0 12.5277 0.35804 10.7288 1.07412 9.0448C1.7902 7.36172 2.75691 5.90248 3.97425 4.66706C5.19159 3.43165 6.62996 2.45058 8.28935 1.72386C9.9478 0.997147 11.7199 0.633789 13.6055 0.633789C15.4912 0.633789 17.2638 0.997147 18.9232 1.72386C20.5816 2.45058 22.0195 3.43165 23.2368 4.66706C24.4542 5.90248 25.4209 7.36172 26.137 9.0448C26.853 10.7288 27.2111 12.5277 27.2111 14.4414C27.2111 16.3551 26.853 18.1535 26.137 19.8365C25.4209 21.5206 24.4542 22.9803 23.2368 24.2157C22.0195 25.4511 20.5816 26.4322 18.9232 27.1589C17.2638 27.8856 15.4912 28.249 13.6055 28.249ZM13.6055 26.0688C16.804 26.0688 19.5132 24.9424 21.7331 22.6896C23.9529 20.4368 25.0628 17.6874 25.0628 14.4414C25.0628 11.1954 23.9529 8.44598 21.7331 6.19317C19.5132 3.94035 16.804 2.81394 13.6055 2.81394C10.407 2.81394 7.69787 3.94035 5.47802 6.19317C3.25817 8.44598 2.14824 11.1954 2.14824 14.4414C2.14824 17.6874 3.25817 20.4368 5.47802 22.6896C7.69787 24.9424 10.407 26.0688 13.6055 26.0688Z" fill="#191919"/>
</svg>
