<svg width="10" height="10" viewBox="0 0 10 10" fill="none" xmlns="http://www.w3.org/2000/svg">
<path d="M4.58203 6.2487H5.41536V7.08203H4.58203V6.2487ZM4.58203 2.91536H5.41536V5.41536H4.58203V2.91536ZM4.99453 0.832031C2.69453 0.832031 0.832031 2.6987 0.832031 4.9987C0.832031 7.2987 2.69453 9.16536 4.99453 9.16536C7.2987 9.16536 9.16536 7.2987 9.16536 4.9987C9.16536 2.6987 7.2987 0.832031 4.99453 0.832031ZM4.9987 8.33203C3.15703 8.33203 1.66536 6.84036 1.66536 4.9987C1.66536 3.15703 3.15703 1.66536 4.9987 1.66536C6.84036 1.66536 8.33203 3.15703 8.33203 4.9987C8.33203 6.84036 6.84036 8.33203 4.9987 8.33203Z" fill="#A40D0D"/>
</svg>
