<svg width="208" height="56" viewBox="0 0 208 56" fill="none" xmlns="http://www.w3.org/2000/svg">
<path d="M39.1744 7C41.8428 7 44.0059 9.1631 44.0059 11.8314V44.1686C44.0059 46.8369 41.8428 49 39.1744 49C36.5061 49 34.343 46.8369 34.343 44.1686V37.2703C34.343 34.2414 31.8876 31.7859 28.8586 31.7859H23.1531C20.1241 31.7859 17.6687 34.2414 17.6687 37.2703V44.1686C17.6687 46.8369 15.5056 49 12.8373 49C10.169 49 8.00586 46.8369 8.00586 44.1686V11.8314C8.00586 9.1631 10.169 7 12.8373 7C15.5056 7 17.6687 9.1631 17.6687 11.8314V17.7832C17.6687 20.8122 20.1241 23.2676 23.1531 23.2676H28.8586C31.8876 23.2676 34.343 20.8122 34.343 17.7832V11.8314C34.343 9.1631 36.5061 7 39.1744 7Z" fill="#077369"/>
<path d="M66.1734 30.4922C64.6734 28.9766 62.8688 28.2188 60.7594 28.2188C58.65 28.2188 56.8531 28.9766 55.3688 30.4922C53.8844 31.9922 53.1422 33.7969 53.1422 35.9062C53.1422 38.0156 53.8844 39.8203 55.3688 41.3203C56.8531 42.8047 58.65 43.5469 60.7594 43.5469C62.8688 43.5469 64.6734 42.8047 66.1734 41.3203C67.6891 39.8203 68.4469 38.0156 68.4469 35.9062C68.4469 33.7969 67.6891 31.9922 66.1734 30.4922ZM54.6891 25.4062C56.5484 24.3125 58.5719 23.7656 60.7594 23.7656C62.9469 23.7656 64.9703 24.3047 66.8297 25.3828C68.6891 26.4453 70.1656 27.9141 71.2594 29.7891C72.3531 31.6484 72.9 33.6875 72.9 35.9062V45.7969C72.9 46.3906 72.6813 46.9062 72.2438 47.3438C71.8063 47.7812 71.275 48 70.65 48C70.0563 48 69.5406 47.7812 69.1031 47.3438C68.6656 46.9062 68.4469 46.3906 68.4469 45.7969V45.2578C66.275 47.0859 63.7125 48 60.7594 48C58.5719 48 56.5484 47.4609 54.6891 46.3828C52.8297 45.3047 51.3609 43.8359 50.2828 41.9766C49.2047 40.1172 48.6656 38.0938 48.6656 35.9062C48.6656 33.7188 49.2047 31.6953 50.2828 29.8359C51.3609 27.9609 52.8297 26.4844 54.6891 25.4062ZM89.9728 23.7656C92.0509 23.7656 93.965 24.2812 95.715 25.3125C97.4806 26.3438 98.8713 27.7422 99.8869 29.5078C100.918 31.2734 101.434 33.1953 101.434 35.2734V45.7969C101.434 46.4062 101.215 46.9297 100.778 47.3672C100.356 47.7891 99.84 48 99.2306 48C98.6369 48 98.1213 47.7812 97.6838 47.3438C97.2463 46.9062 97.0275 46.3906 97.0275 45.7969V35.2734C97.0275 33.3203 96.3322 31.6562 94.9416 30.2812C93.5666 28.9062 91.9103 28.2188 89.9728 28.2188C88.0353 28.2188 86.3713 28.9062 84.9806 30.2812C83.6056 31.6562 82.9181 33.3203 82.9181 35.2734V45.7969C82.9181 46.3906 82.6916 46.9062 82.2384 47.3438C81.8009 47.7812 81.2697 48 80.6447 48C80.0509 48 79.5353 47.7812 79.0978 47.3438C78.6603 46.9062 78.4416 46.3906 78.4416 45.7969V26.0156C78.4416 25.3906 78.6603 24.8594 79.0978 24.4219C79.5353 23.9844 80.0509 23.7656 80.6447 23.7656C81.2697 23.7656 81.8009 23.9844 82.2384 24.4219C82.6916 24.8594 82.9181 25.3906 82.9181 26.0156V26.2031C84.9338 24.5781 87.2853 23.7656 89.9728 23.7656ZM127.999 13.4297C128.608 13.4297 129.132 13.6563 129.569 14.1094C130.022 14.5469 130.249 15.0625 130.249 15.6562V35.9062C130.249 38.0938 129.702 40.1172 128.608 41.9766C127.53 43.8359 126.053 45.3047 124.178 46.3828C122.319 47.4609 120.296 48 118.108 48C115.921 48 113.897 47.4609 112.038 46.3828C110.178 45.3047 108.71 43.8359 107.632 41.9766C106.553 40.1172 106.014 38.0938 106.014 35.9062C106.014 33.7188 106.553 31.6953 107.632 29.8359C108.71 27.9609 110.178 26.4844 112.038 25.4062C113.897 24.3125 115.921 23.7656 118.108 23.7656C121.014 23.7656 123.577 24.6953 125.796 26.5547V15.6562C125.796 15.0625 126.014 14.5469 126.452 14.1094C126.889 13.6563 127.405 13.4297 127.999 13.4297ZM123.522 30.4922C122.022 28.9766 120.218 28.2188 118.108 28.2188C115.999 28.2188 114.202 28.9766 112.718 30.4922C111.233 31.9922 110.491 33.7969 110.491 35.9062C110.491 38.0156 111.233 39.8203 112.718 41.3203C114.202 42.8047 115.999 43.5469 118.108 43.5469C120.218 43.5469 122.022 42.8047 123.522 41.3203C125.038 39.8203 125.796 38.0156 125.796 35.9062C125.796 33.7969 125.038 31.9922 123.522 30.4922ZM140.853 25.4062C142.712 24.3125 144.736 23.7656 146.923 23.7656C149.111 23.7656 151.134 24.3125 152.993 25.4062C154.868 26.4844 156.345 27.9609 157.423 29.8359C158.517 31.6953 159.064 33.7188 159.064 35.9062C159.064 38.0938 158.517 40.1172 157.423 41.9766C156.345 43.8359 154.868 45.3047 152.993 46.3828C151.134 47.4609 149.111 48 146.923 48C144.736 48 142.712 47.4609 140.853 46.3828C138.993 45.3047 137.525 43.8359 136.447 41.9766C135.368 40.1172 134.829 38.0938 134.829 35.9062C134.829 33.7188 135.368 31.6953 136.447 29.8359C137.525 27.9609 138.993 26.4844 140.853 25.4062ZM152.337 30.4922C150.837 28.9766 149.033 28.2188 146.923 28.2188C144.814 28.2188 143.017 28.9766 141.533 30.4922C140.048 31.9922 139.306 33.7969 139.306 35.9062C139.306 38.0156 140.048 39.8203 141.533 41.3203C143.017 42.8047 144.814 43.5469 146.923 43.5469C149.033 43.5469 150.837 42.8047 152.337 41.3203C153.853 39.8203 154.611 38.0156 154.611 35.9062C154.611 33.7969 153.853 31.9922 152.337 30.4922ZM184.41 23.7656C185.035 23.7656 185.558 23.9844 185.98 24.4219C186.402 24.8594 186.613 25.3906 186.613 26.0156V36.4688C186.613 38.0156 186.308 39.5078 185.699 40.9453C185.09 42.3672 184.269 43.5938 183.238 44.625C182.223 45.6562 181.004 46.4766 179.582 47.0859C178.16 47.6953 176.676 48 175.129 48C173.051 48 171.129 47.4844 169.363 46.4531C167.598 45.4219 166.199 44.0234 165.168 42.2578C164.137 40.4766 163.621 38.5469 163.621 36.4688V26.0156C163.621 25.3906 163.84 24.8594 164.277 24.4219C164.715 23.9844 165.23 23.7656 165.824 23.7656C166.449 23.7656 166.98 23.9844 167.418 24.4219C167.855 24.8594 168.074 25.3906 168.074 26.0156V36.4688C168.074 38.4219 168.762 40.0938 170.137 41.4844C171.527 42.8594 173.191 43.5469 175.129 43.5469C177.066 43.5469 178.723 42.8594 180.098 41.4844C181.488 40.0938 182.183 38.4219 182.183 36.4688V26.0156C182.183 25.3906 182.402 24.8594 182.84 24.4219C183.277 23.9844 183.801 23.7656 184.41 23.7656ZM197.545 13.4297C198.139 13.4297 198.655 13.6563 199.092 14.1094C199.53 14.5469 199.748 15.0625 199.748 15.6562V23.7656H205.303C205.928 23.7656 206.452 23.9844 206.873 24.4219C207.311 24.8594 207.53 25.3906 207.53 26.0156C207.53 26.6094 207.311 27.125 206.873 27.5625C206.436 28 205.913 28.2188 205.303 28.2188H199.748V45.7969C199.748 46.3906 199.53 46.9062 199.092 47.3438C198.655 47.7812 198.139 48 197.545 48C196.92 48 196.389 47.7812 195.952 47.3438C195.53 46.9062 195.319 46.3906 195.319 45.7969V28.2188H192.155C191.561 28.2188 191.045 28 190.608 27.5625C190.17 27.125 189.952 26.6094 189.952 26.0156C189.952 25.3906 190.17 24.8594 190.608 24.4219C191.045 23.9844 191.561 23.7656 192.155 23.7656H195.319V15.6562C195.319 15.0469 195.538 14.5234 195.975 14.0859C196.413 13.6484 196.936 13.4297 197.545 13.4297Z" fill="#077369"/>
<path d="M66.1734 30.4922L66.0313 30.6329L66.0328 30.6343L66.1734 30.4922ZM55.3688 30.4922L55.5109 30.6329L55.5116 30.6321L55.3688 30.4922ZM55.3688 41.3203L55.2266 41.461L55.2273 41.4617L55.3688 41.3203ZM66.1734 41.3203L66.3141 41.4625L66.3141 41.4625L66.1734 41.3203ZM54.6891 25.4062L54.7894 25.5793L54.7905 25.5786L54.6891 25.4062ZM66.8297 25.3828L66.7294 25.5558L66.7305 25.5565L66.8297 25.3828ZM71.2594 29.7891L71.0866 29.8898L71.087 29.8905L71.2594 29.7891ZM68.4469 45.2578H68.6469V44.828L68.3181 45.1048L68.4469 45.2578ZM50.2828 29.8359L50.4558 29.9363L50.4562 29.9356L50.2828 29.8359ZM66.3156 30.3515C64.7785 28.7984 62.9228 28.0187 60.7594 28.0187V28.4188C62.8147 28.4188 64.5684 29.1547 66.0313 30.6329L66.3156 30.3515ZM60.7594 28.0187C58.5959 28.0187 56.7476 28.7985 55.2259 30.3522L55.5116 30.6321C56.9586 29.1547 58.7041 28.4188 60.7594 28.4188V28.0187ZM55.2266 30.3515C53.7052 31.8889 52.9422 33.7442 52.9422 35.9062H53.3422C53.3422 33.8496 54.0636 32.0954 55.5109 30.6329L55.2266 30.3515ZM52.9422 35.9062C52.9422 38.0683 53.7052 39.9236 55.2266 41.461L55.5109 41.1796C54.0636 39.7171 53.3422 37.9629 53.3422 35.9062H52.9422ZM55.2273 41.4617C56.7494 42.9838 58.5972 43.7469 60.7594 43.7469V43.3469C58.7028 43.3469 56.9568 42.6256 55.5102 41.1789L55.2273 41.4617ZM60.7594 43.7469C62.9215 43.7469 64.7767 42.9839 66.3141 41.4625L66.0328 41.1782C64.5702 42.6255 62.816 43.3469 60.7594 43.3469V43.7469ZM66.3141 41.4625C67.8672 39.9254 68.6469 38.0697 68.6469 35.9062H68.2469C68.2469 37.9616 67.5109 39.7153 66.0328 41.1782L66.3141 41.4625ZM68.6469 35.9062C68.6469 33.7428 67.8672 31.8871 66.3141 30.35L66.0328 30.6343C67.5109 32.0972 68.2469 33.8509 68.2469 35.9062H68.6469ZM54.7905 25.5786C56.6187 24.5032 58.607 23.9656 60.7594 23.9656V23.5656C58.5367 23.5656 56.4782 24.1218 54.5877 25.2339L54.7905 25.5786ZM60.7594 23.9656C62.9123 23.9656 64.901 24.4957 66.7294 25.5558L66.93 25.2098C65.0396 24.1137 62.9815 23.5656 60.7594 23.5656V23.9656ZM66.7305 25.5565C68.5589 26.6013 70.0103 28.0447 71.0866 29.8898L71.4321 29.6883C70.3209 27.7834 68.8192 26.2893 66.9289 25.2092L66.7305 25.5565ZM71.087 29.8905C72.1621 31.7182 72.7 33.7221 72.7 35.9062H73.1C73.1 33.6529 72.5441 31.5787 71.4318 29.6877L71.087 29.8905ZM72.7 35.9062V45.7969H73.1V35.9062H72.7ZM72.7 45.7969C72.7 46.3351 72.5041 46.8006 72.1023 47.2023L72.3852 47.4852C72.8584 47.0119 73.1 46.4461 73.1 45.7969H72.7ZM72.1023 47.2023C71.7028 47.6019 71.2226 47.8 70.65 47.8V48.2C71.3274 48.2 71.9097 47.9606 72.3852 47.4852L72.1023 47.2023ZM70.65 47.8C70.1117 47.8 69.6463 47.6041 69.2445 47.2023L68.9617 47.4852C69.435 47.9584 70.0008 48.2 70.65 48.2V47.8ZM69.2445 47.2023C68.8428 46.8006 68.6469 46.3351 68.6469 45.7969H68.2469C68.2469 46.4461 68.4885 47.0119 68.9617 47.4852L69.2445 47.2023ZM68.6469 45.7969V45.2578H68.2469V45.7969H68.6469ZM68.3181 45.1048C66.1838 46.9013 63.6674 47.8 60.7594 47.8V48.2C63.7576 48.2 66.3662 47.2706 68.5757 45.4108L68.3181 45.1048ZM60.7594 47.8C58.6065 47.8 56.6177 47.2699 54.7894 46.2098L54.5887 46.5558C56.4792 47.652 58.5373 48.2 60.7594 48.2V47.8ZM54.7894 46.2098C52.9602 45.1492 51.5165 43.7055 50.4558 41.8762L50.1098 42.0769C51.2054 43.9664 52.6992 45.4602 54.5887 46.5558L54.7894 46.2098ZM50.4558 41.8762C49.3957 40.0479 48.8656 38.0592 48.8656 35.9062H48.4656C48.4656 38.1283 49.0137 40.1865 50.1098 42.0769L50.4558 41.8762ZM48.8656 35.9062C48.8656 33.7533 49.3957 31.7646 50.4558 29.9363L50.1098 29.7356C49.0137 31.626 48.4656 33.6842 48.4656 35.9062H48.8656ZM50.4562 29.9356C51.5169 28.0909 52.9606 26.6397 54.7894 25.5793L54.5887 25.2332C52.6988 26.3291 51.2049 27.831 50.1094 29.7362L50.4562 29.9356ZM95.715 25.3125L95.6135 25.4848L95.6141 25.4852L95.715 25.3125ZM99.8869 29.5078L99.7135 29.6075L99.7142 29.6087L99.8869 29.5078ZM94.9416 30.2812L94.8001 30.4227L94.8009 30.4235L94.9416 30.2812ZM84.9806 30.2812L84.84 30.139L84.8392 30.1398L84.9806 30.2812ZM82.2384 47.3438L82.0995 47.1998L82.097 47.2023L82.2384 47.3438ZM82.2384 24.4219L82.097 24.5633L82.0995 24.5658L82.2384 24.4219ZM82.9181 26.2031H82.7181V26.6213L83.0437 26.3588L82.9181 26.2031ZM89.9728 23.9656C92.0161 23.9656 93.895 24.4721 95.6135 25.4848L95.8165 25.1402C94.035 24.0904 92.0858 23.5656 89.9728 23.5656V23.9656ZM95.6141 25.4852C97.3498 26.4989 98.7153 27.8723 99.7135 29.6075L100.06 29.4081C99.0272 27.6121 97.6115 26.1886 95.8159 25.1398L95.6141 25.4852ZM99.7142 29.6087C100.727 31.3432 101.234 33.2302 101.234 35.2734H101.634C101.634 33.1605 101.109 31.2037 100.06 29.4069L99.7142 29.6087ZM101.234 35.2734V45.7969H101.634V35.2734H101.234ZM101.234 45.7969C101.234 46.3523 101.037 46.8251 100.636 47.2258L100.919 47.5086C101.393 47.0342 101.634 46.4602 101.634 45.7969H101.234ZM100.636 47.2258C100.253 47.6092 99.7882 47.8 99.2306 47.8V48.2C99.8918 48.2 100.459 47.9689 100.919 47.5086L100.636 47.2258ZM99.2306 47.8C98.6924 47.8 98.2269 47.6041 97.8252 47.2023L97.5423 47.4852C98.0156 47.9584 98.5814 48.2 99.2306 48.2V47.8ZM97.8252 47.2023C97.4234 46.8006 97.2275 46.3351 97.2275 45.7969H96.8275C96.8275 46.4461 97.0691 47.0119 97.5423 47.4852L97.8252 47.2023ZM97.2275 45.7969V35.2734H96.8275V45.7969H97.2275ZM97.2275 35.2734C97.2275 33.2668 96.5108 31.5515 95.0822 30.139L94.8009 30.4235C96.1536 31.761 96.8275 33.3738 96.8275 35.2734H97.2275ZM95.083 30.1398C93.6706 28.7275 91.9636 28.0187 89.9728 28.0187V28.4188C91.8571 28.4188 93.4625 29.085 94.8001 30.4227L95.083 30.1398ZM89.9728 28.0187C87.9821 28.0187 86.2677 28.7274 84.84 30.139L85.1212 30.4235C86.4748 29.0851 88.0885 28.4188 89.9728 28.4188V28.0187ZM84.8392 30.1398C83.4265 31.5525 82.7181 33.2675 82.7181 35.2734H83.1181C83.1181 33.3731 83.7847 31.76 85.122 30.4227L84.8392 30.1398ZM82.7181 35.2734V45.7969H83.1181V35.2734H82.7181ZM82.7181 45.7969C82.7181 46.3328 82.5163 46.7975 82.0995 47.1999L82.3774 47.4876C82.8669 47.015 83.1181 46.4485 83.1181 45.7969H82.7181ZM82.097 47.2023C81.6975 47.6019 81.2173 47.8 80.6447 47.8V48.2C81.3221 48.2 81.9044 47.9606 82.3799 47.4852L82.097 47.2023ZM80.6447 47.8C80.1064 47.8 79.641 47.6041 79.2392 47.2023L78.9564 47.4852C79.4296 47.9584 79.9955 48.2 80.6447 48.2V47.8ZM79.2392 47.2023C78.8375 46.8006 78.6416 46.3351 78.6416 45.7969H78.2416C78.2416 46.4461 78.4831 47.0119 78.9564 47.4852L79.2392 47.2023ZM78.6416 45.7969V26.0156H78.2416V45.7969H78.6416ZM78.6416 26.0156C78.6416 25.4431 78.8397 24.9629 79.2392 24.5633L78.9564 24.2805C78.481 24.7559 78.2416 25.3382 78.2416 26.0156H78.6416ZM79.2392 24.5633C79.641 24.1615 80.1064 23.9656 80.6447 23.9656V23.5656C79.9955 23.5656 79.4296 23.8072 78.9564 24.2805L79.2392 24.5633ZM80.6447 23.9656C81.2173 23.9656 81.6975 24.1637 82.097 24.5633L82.3799 24.2805C81.9044 23.805 81.3221 23.5656 80.6447 23.5656V23.9656ZM82.0995 24.5658C82.514 24.9659 82.7181 25.4454 82.7181 26.0156H83.1181C83.1181 25.3359 82.8692 24.7529 82.3774 24.278L82.0995 24.5658ZM82.7181 26.0156V26.2031H83.1181V26.0156H82.7181ZM83.0437 26.3588C85.0223 24.7636 87.3291 23.9656 89.9728 23.9656V23.5656C87.2415 23.5656 84.8452 24.3926 82.7926 26.0474L83.0437 26.3588ZM129.569 14.1094L129.425 14.2484L129.43 14.2533L129.569 14.1094ZM128.608 41.9766L128.436 41.8752L128.435 41.8762L128.608 41.9766ZM124.178 46.3828L124.079 46.2094L124.078 46.2098L124.178 46.3828ZM107.632 29.8359L107.805 29.9363L107.805 29.9356L107.632 29.8359ZM112.038 25.4062L112.138 25.5793L112.139 25.5786L112.038 25.4062ZM125.796 26.5547L125.667 26.708L125.996 26.9832V26.5547H125.796ZM126.452 14.1094L126.593 14.2508L126.596 14.2483L126.452 14.1094ZM123.522 30.4922L123.38 30.6329L123.382 30.6343L123.522 30.4922ZM112.717 30.4922L112.86 30.6329L112.86 30.6321L112.717 30.4922ZM112.717 41.3203L112.575 41.461L112.576 41.4617L112.717 41.3203ZM123.522 41.3203L123.663 41.4625L123.663 41.4625L123.522 41.3203ZM127.999 13.6297C128.552 13.6297 129.024 13.8327 129.425 14.2483L129.713 13.9705C129.239 13.4798 128.664 13.2297 127.999 13.2297V13.6297ZM129.43 14.2533C129.847 14.6556 130.049 15.1203 130.049 15.6562H130.449C130.449 15.0047 130.197 14.4381 129.708 13.9655L129.43 14.2533ZM130.049 15.6562V35.9062H130.449V15.6562H130.049ZM130.049 35.9062C130.049 38.0586 129.511 40.047 128.436 41.8752L128.781 42.078C129.893 40.1874 130.449 38.1289 130.449 35.9062H130.049ZM128.435 41.8762C127.375 43.7051 125.924 45.1487 124.079 46.2094L124.278 46.5562C126.183 45.4607 127.685 43.9668 128.781 42.0769L128.435 41.8762ZM124.078 46.2098C122.25 47.2699 120.261 47.8 118.108 47.8V48.2C120.33 48.2 122.388 47.652 124.279 46.5558L124.078 46.2098ZM118.108 47.8C115.955 47.8 113.966 47.2699 112.138 46.2098L111.937 46.5558C113.828 47.652 115.886 48.2 118.108 48.2V47.8ZM112.138 46.2098C110.309 45.1492 108.865 43.7055 107.805 41.8762L107.459 42.0769C108.554 43.9664 110.048 45.4602 111.937 46.5558L112.138 46.2098ZM107.805 41.8762C106.744 40.0479 106.214 38.0592 106.214 35.9062H105.814C105.814 38.1283 106.362 40.1865 107.459 42.0769L107.805 41.8762ZM106.214 35.9062C106.214 33.7533 106.744 31.7646 107.805 29.9363L107.459 29.7356C106.362 31.626 105.814 33.6842 105.814 35.9062H106.214ZM107.805 29.9356C108.866 28.0909 110.309 26.6397 112.138 25.5793L111.937 25.2332C110.048 26.3291 108.554 27.831 107.458 29.7362L107.805 29.9356ZM112.139 25.5786C113.967 24.5032 115.956 23.9656 118.108 23.9656V23.5656C115.885 23.5656 113.827 24.1218 111.936 25.2339L112.139 25.5786ZM118.108 23.9656C120.968 23.9656 123.485 24.8789 125.667 26.708L125.924 26.4014C123.669 24.5117 121.061 23.5656 118.108 23.5656V23.9656ZM125.996 26.5547V15.6562H125.596V26.5547H125.996ZM125.996 15.6562C125.996 15.118 126.192 14.6525 126.593 14.2508L126.31 13.968C125.837 14.4412 125.596 15.007 125.596 15.6562H125.996ZM126.596 14.2483C126.998 13.8316 127.463 13.6297 127.999 13.6297V13.2297C127.347 13.2297 126.781 13.4809 126.308 13.9705L126.596 14.2483ZM123.664 30.3515C122.127 28.7984 120.272 28.0187 118.108 28.0187V28.4188C120.163 28.4188 121.917 29.1547 123.38 30.6329L123.664 30.3515ZM118.108 28.0187C115.945 28.0187 114.096 28.7985 112.575 30.3522L112.86 30.6321C114.307 29.1547 116.053 28.4188 118.108 28.4188V28.0187ZM112.575 30.3515C111.054 31.8889 110.291 33.7442 110.291 35.9062H110.691C110.691 33.8496 111.412 32.0954 112.86 30.6329L112.575 30.3515ZM110.291 35.9062C110.291 38.0683 111.054 39.9236 112.575 41.461L112.86 41.1796C111.412 39.7171 110.691 37.9629 110.691 35.9062H110.291ZM112.576 41.4617C114.098 42.9838 115.946 43.7469 118.108 43.7469V43.3469C116.052 43.3469 114.306 42.6256 112.859 41.1789L112.576 41.4617ZM118.108 43.7469C120.27 43.7469 122.125 42.9839 123.663 41.4625L123.382 41.1782C121.919 42.6255 120.165 43.3469 118.108 43.3469V43.7469ZM123.663 41.4625C125.216 39.9254 125.996 38.0697 125.996 35.9062H125.596C125.596 37.9616 124.86 39.7153 123.382 41.1782L123.663 41.4625ZM125.996 35.9062C125.996 33.7428 125.216 31.8871 123.663 30.35L123.382 30.6343C124.86 32.0972 125.596 33.8509 125.596 35.9062H125.996ZM140.853 25.4062L140.953 25.5793L140.954 25.5786L140.853 25.4062ZM152.993 25.4062L152.892 25.5786L152.894 25.5796L152.993 25.4062ZM157.423 29.8359L157.25 29.9356L157.251 29.9373L157.423 29.8359ZM157.423 41.9766L157.251 41.8752L157.25 41.8762L157.423 41.9766ZM152.993 46.3828L152.894 46.2094L152.893 46.2098L152.993 46.3828ZM136.447 29.8359L136.62 29.9363L136.62 29.9356L136.447 29.8359ZM152.337 30.4922L152.195 30.6329L152.197 30.6343L152.337 30.4922ZM141.533 30.4922L141.675 30.6329L141.675 30.6321L141.533 30.4922ZM141.533 41.3203L141.39 41.461L141.391 41.4617L141.533 41.3203ZM152.337 41.3203L152.478 41.4625L152.478 41.4625L152.337 41.3203ZM140.954 25.5786C142.782 24.5032 144.771 23.9656 146.923 23.9656V23.5656C144.7 23.5656 142.642 24.1218 140.751 25.2339L140.954 25.5786ZM146.923 23.9656C149.075 23.9656 151.064 24.5032 152.892 25.5786L153.095 25.2339C151.204 24.1218 149.146 23.5656 146.923 23.5656V23.9656ZM152.894 25.5796C154.738 26.6401 156.189 28.0913 157.25 29.9356L157.597 29.7362C156.501 27.8306 154.999 26.3286 153.093 25.2329L152.894 25.5796ZM157.251 29.9373C158.326 31.7655 158.864 33.7539 158.864 35.9062H159.264C159.264 33.6836 158.708 31.6251 157.596 29.7345L157.251 29.9373ZM158.864 35.9062C158.864 38.0586 158.326 40.047 157.251 41.8752L157.596 42.078C158.708 40.1874 159.264 38.1289 159.264 35.9062H158.864ZM157.25 41.8762C156.19 43.7051 154.739 45.1487 152.894 46.2094L153.093 46.5562C154.998 45.4607 156.5 43.9668 157.596 42.0769L157.25 41.8762ZM152.893 46.2098C151.065 47.2699 149.076 47.8 146.923 47.8V48.2C149.145 48.2 151.203 47.652 153.094 46.5558L152.893 46.2098ZM146.923 47.8C144.77 47.8 142.781 47.2699 140.953 46.2098L140.752 46.5558C142.643 47.652 144.701 48.2 146.923 48.2V47.8ZM140.953 46.2098C139.124 45.1492 137.68 43.7055 136.62 41.8762L136.274 42.0769C137.369 43.9664 138.863 45.4602 140.752 46.5558L140.953 46.2098ZM136.62 41.8762C135.559 40.0479 135.029 38.0592 135.029 35.9062H134.629C134.629 38.1283 135.177 40.1865 136.274 42.0769L136.62 41.8762ZM135.029 35.9062C135.029 33.7533 135.559 31.7646 136.62 29.9363L136.274 29.7356C135.177 31.626 134.629 33.6842 134.629 35.9062H135.029ZM136.62 29.9356C137.681 28.0909 139.124 26.6397 140.953 25.5793L140.752 25.2332C138.863 26.3291 137.369 27.831 136.273 29.7362L136.62 29.9356ZM152.479 30.3515C150.942 28.7984 149.087 28.0187 146.923 28.0187V28.4188C148.978 28.4188 150.732 29.1547 152.195 30.6329L152.479 30.3515ZM146.923 28.0187C144.76 28.0187 142.911 28.7985 141.39 30.3522L141.675 30.6321C143.122 29.1547 144.868 28.4188 146.923 28.4188V28.0187ZM141.39 30.3515C139.869 31.8889 139.106 33.7442 139.106 35.9062H139.506C139.506 33.8496 140.227 32.0954 141.675 30.6329L141.39 30.3515ZM139.106 35.9062C139.106 38.0683 139.869 39.9236 141.39 41.461L141.675 41.1796C140.227 39.7171 139.506 37.9629 139.506 35.9062H139.106ZM141.391 41.4617C142.913 42.9838 144.761 43.7469 146.923 43.7469V43.3469C144.867 43.3469 143.121 42.6256 141.674 41.1789L141.391 41.4617ZM146.923 43.7469C149.085 43.7469 150.94 42.9839 152.478 41.4625L152.197 41.1782C150.734 42.6255 148.98 43.3469 146.923 43.3469V43.7469ZM152.478 41.4625C154.031 39.9254 154.811 38.0697 154.811 35.9062H154.411C154.411 37.9616 153.675 39.7153 152.197 41.1782L152.478 41.4625ZM154.811 35.9062C154.811 33.7428 154.031 31.8871 152.478 30.35L152.197 30.6343C153.675 32.0972 154.411 33.8509 154.411 35.9062H154.811ZM185.699 40.9453L185.883 41.0241L185.883 41.0234L185.699 40.9453ZM183.238 44.625L183.097 44.4836L183.096 44.4847L183.238 44.625ZM165.168 42.2578L164.995 42.358L164.995 42.3587L165.168 42.2578ZM170.137 41.4844L169.994 41.625L169.996 41.6266L170.137 41.4844ZM184.41 23.9656C184.982 23.9656 185.453 24.1635 185.836 24.5607L186.124 24.283C185.664 23.8052 185.088 23.5656 184.41 23.5656V23.9656ZM185.836 24.5607C186.221 24.9598 186.413 25.4408 186.413 26.0156H186.813C186.813 25.3405 186.583 24.759 186.124 24.283L185.836 24.5607ZM186.413 26.0156V36.4688H186.813V26.0156H186.413ZM186.413 36.4688C186.413 37.9885 186.114 39.4542 185.515 40.8673L185.883 41.0234C186.503 39.5614 186.813 38.0427 186.813 36.4688H186.413ZM185.515 40.8665C184.915 42.2665 184.109 43.4714 183.097 44.4836L183.38 44.7664C184.43 43.7161 185.264 42.4679 185.883 41.0241L185.515 40.8665ZM183.096 44.4847C182.099 45.4962 180.903 46.3022 179.503 46.9021L179.661 47.2698C181.105 46.6509 182.346 45.8163 183.381 44.7653L183.096 44.4847ZM179.503 46.9021C178.106 47.5008 176.649 47.8 175.129 47.8V48.2C176.703 48.2 178.214 47.8898 179.661 47.2698L179.503 46.9021ZM175.129 47.8C173.085 47.8 171.198 47.2935 169.464 46.2804L169.262 46.6258C171.059 47.6753 173.016 48.2 175.129 48.2V47.8ZM169.464 46.2804C167.728 45.2665 166.354 43.8928 165.341 42.1569L164.995 42.3587C166.044 44.154 167.467 45.5772 169.262 46.6258L169.464 46.2804ZM165.341 42.1576C164.327 40.4071 163.821 38.512 163.821 36.4688H163.421C163.421 38.5817 163.946 40.546 164.995 42.358L165.341 42.1576ZM163.821 36.4688V26.0156H163.421V36.4688H163.821ZM163.821 26.0156C163.821 25.4431 164.019 24.9629 164.419 24.5633L164.136 24.2805C163.66 24.7559 163.421 25.3382 163.421 26.0156H163.821ZM164.419 24.5633C164.82 24.1615 165.286 23.9656 165.824 23.9656V23.5656C165.175 23.5656 164.609 23.8072 164.136 24.2805L164.419 24.5633ZM165.824 23.9656C166.397 23.9656 166.877 24.1637 167.276 24.5633L167.559 24.2805C167.084 23.805 166.502 23.5656 165.824 23.5656V23.9656ZM167.276 24.5633C167.676 24.9629 167.874 25.4431 167.874 26.0156H168.274C168.274 25.3382 168.035 24.7559 167.559 24.2805L167.276 24.5633ZM167.874 26.0156V36.4688H168.274V26.0156H167.874ZM167.874 36.4688C167.874 38.4746 168.582 40.197 169.994 41.625L170.279 41.3438C168.941 39.9905 168.274 38.3691 168.274 36.4688H167.874ZM169.996 41.6266C171.424 43.0382 173.138 43.7469 175.129 43.7469V43.3469C173.244 43.3469 171.631 42.6805 170.277 41.3422L169.996 41.6266ZM175.129 43.7469C177.12 43.7469 178.827 43.0382 180.239 41.6258L179.956 41.343C178.618 42.6806 177.013 43.3469 175.129 43.3469V43.7469ZM180.239 41.6258C181.667 40.198 182.383 38.4753 182.383 36.4688H181.983C181.983 38.3684 181.309 39.9895 179.956 41.343L180.239 41.6258ZM182.383 36.4688V26.0156H181.983V36.4688H182.383ZM182.383 26.0156C182.383 25.4431 182.582 24.9629 182.981 24.5633L182.698 24.2805C182.223 24.7559 181.983 25.3382 181.983 26.0156H182.383ZM182.981 24.5633C183.382 24.1627 183.855 23.9656 184.41 23.9656V23.5656C183.747 23.5656 183.173 23.8061 182.698 24.2805L182.981 24.5633ZM199.092 14.1094L198.948 14.2483L198.951 14.2508L199.092 14.1094ZM199.748 23.7656H199.548V23.9656H199.748V23.7656ZM206.873 24.4219L206.729 24.5607L206.732 24.5633L206.873 24.4219ZM199.748 28.2188V28.0187H199.548V28.2188H199.748ZM195.952 47.3438L195.808 47.4826L195.81 47.4852L195.952 47.3438ZM195.319 28.2188H195.519V28.0187H195.319V28.2188ZM195.319 23.7656V23.9656H195.519V23.7656H195.319ZM197.545 13.6297C198.081 13.6297 198.546 13.8316 198.948 14.2483L199.236 13.9705C198.763 13.4809 198.197 13.2297 197.545 13.2297V13.6297ZM198.951 14.2508C199.353 14.6525 199.548 15.118 199.548 15.6562H199.948C199.948 15.007 199.707 14.4412 199.234 13.968L198.951 14.2508ZM199.548 15.6562V23.7656H199.948V15.6562H199.548ZM199.748 23.9656H205.303V23.5656H199.748V23.9656ZM205.303 23.9656C205.876 23.9656 206.346 24.1635 206.729 24.5607L207.017 24.283C206.557 23.8052 205.981 23.5656 205.303 23.5656V23.9656ZM206.732 24.5633C207.132 24.9629 207.33 25.4431 207.33 26.0156H207.73C207.73 25.3382 207.49 24.7559 207.015 24.2805L206.732 24.5633ZM207.33 26.0156C207.33 26.5539 207.134 27.0193 206.732 27.4211L207.015 27.7039C207.488 27.2307 207.73 26.6649 207.73 26.0156H207.33ZM206.732 27.4211C206.331 27.8217 205.859 28.0187 205.303 28.0187V28.4188C205.966 28.4188 206.54 28.1783 207.015 27.7039L206.732 27.4211ZM205.303 28.0187H199.748V28.4188H205.303V28.0187ZM199.548 28.2188V45.7969H199.948V28.2188H199.548ZM199.548 45.7969C199.548 46.3351 199.353 46.8006 198.951 47.2023L199.234 47.4852C199.707 47.0119 199.948 46.4461 199.948 45.7969H199.548ZM198.951 47.2023C198.549 47.6041 198.084 47.8 197.545 47.8V48.2C198.195 48.2 198.76 47.9584 199.234 47.4852L198.951 47.2023ZM197.545 47.8C196.973 47.8 196.493 47.6019 196.093 47.2023L195.81 47.4852C196.286 47.9606 196.868 48.2 197.545 48.2V47.8ZM196.096 47.2049C195.709 46.8037 195.519 46.3375 195.519 45.7969H195.119C195.119 46.4438 195.351 47.0088 195.808 47.4826L196.096 47.2049ZM195.519 45.7969V28.2188H195.119V45.7969H195.519ZM195.319 28.0187H192.155V28.4188H195.319V28.0187ZM192.155 28.0187C191.616 28.0187 191.151 27.8228 190.749 27.4211L190.466 27.7039C190.94 28.1772 191.505 28.4188 192.155 28.4188V28.0187ZM190.749 27.4211C190.347 27.0193 190.152 26.5539 190.152 26.0156H189.752C189.752 26.6649 189.993 27.2307 190.466 27.7039L190.749 27.4211ZM190.152 26.0156C190.152 25.4431 190.35 24.9629 190.749 24.5633L190.466 24.2805C189.991 24.7559 189.752 25.3382 189.752 26.0156H190.152ZM190.749 24.5633C191.151 24.1615 191.616 23.9656 192.155 23.9656V23.5656C191.505 23.5656 190.94 23.8072 190.466 24.2805L190.749 24.5633ZM192.155 23.9656H195.319V23.5656H192.155V23.9656ZM195.519 23.7656V15.6562H195.119V23.7656H195.519ZM195.519 15.6562C195.519 15.1008 195.716 14.628 196.116 14.2274L195.834 13.9445C195.359 14.4189 195.119 14.9929 195.119 15.6562H195.519ZM196.116 14.2274C196.517 13.8267 196.99 13.6297 197.545 13.6297V13.2297C196.882 13.2297 196.308 13.4702 195.834 13.9445L196.116 14.2274Z" fill="#077369"/>
</svg>
