<svg width="35" height="35" viewBox="0 0 35 35" fill="none" xmlns="http://www.w3.org/2000/svg">
<path d="M8.4638 26.8767L20.739 20.739L26.8767 8.4638L14.6014 14.6014L8.4638 26.8767ZM17.6702 19.4492C17.1662 19.4492 16.744 19.2785 16.4036 18.9369C16.062 18.5965 15.8912 18.1743 15.8912 17.6702C15.8912 17.1662 16.062 16.7434 16.4036 16.4018C16.744 16.0614 17.1662 15.8912 17.6702 15.8912C18.1743 15.8912 18.5971 16.0614 18.9387 16.4018C19.2791 16.7434 19.4492 17.1662 19.4492 17.6702C19.4492 18.1743 19.2791 18.5965 18.9387 18.9369C18.5971 19.2785 18.1743 19.4492 17.6702 19.4492ZM17.6702 34.5709C15.3279 34.5709 13.1266 34.1262 11.0665 33.2367C9.00521 32.3471 7.21848 31.1463 5.70631 29.6341C4.19415 28.122 2.99331 26.3352 2.1038 24.274C1.21429 22.2138 0.769531 20.0126 0.769531 17.6702C0.769531 15.3279 1.21429 13.126 2.1038 11.0647C2.99331 9.00462 4.19415 7.21848 5.70631 5.70631C7.21848 4.19415 9.00521 2.99331 11.0665 2.1038C13.1266 1.21429 15.3279 0.769531 17.6702 0.769531C20.0126 0.769531 22.2144 1.21429 24.2757 2.1038C26.3358 2.99331 28.122 4.19415 29.6341 5.70631C31.1463 7.21848 32.3471 9.00462 33.2367 11.0647C34.1262 13.126 34.5709 15.3279 34.5709 17.6702C34.5709 20.0126 34.1262 22.2138 33.2367 24.274C32.3471 26.3352 31.1463 28.122 29.6341 29.6341C28.122 31.1463 26.3358 32.3471 24.2757 33.2367C22.2144 34.1262 20.0126 34.5709 17.6702 34.5709ZM17.6702 31.9024C21.6434 31.9024 25.0087 30.5237 27.7662 27.7662C30.5237 25.0087 31.9024 21.6434 31.9024 17.6702C31.9024 13.6971 30.5237 10.3318 27.7662 7.57429C25.0087 4.8168 21.6434 3.43806 17.6702 3.43806C13.6971 3.43806 10.3318 4.8168 7.57429 7.57429C4.8168 10.3318 3.43806 13.6971 3.43806 17.6702C3.43806 21.6434 4.8168 25.0087 7.57429 27.7662C10.3318 30.5237 13.6971 31.9024 17.6702 31.9024Z" fill="#077369"/>
</svg>
