<svg width="22" height="22" viewBox="0 0 22 22" fill="none" xmlns="http://www.w3.org/2000/svg">
<path opacity="0.5" d="M11.0008 0.799988C8.98341 0.799988 7.01135 1.39821 5.33397 2.519C3.65659 3.63979 2.34923 5.23281 1.57721 7.09661C0.805201 8.96042 0.603207 11.0113 0.996776 12.9899C1.39034 14.9685 2.3618 16.786 3.7883 18.2125C5.21479 19.639 7.03226 20.6104 9.01086 21.004C10.9895 21.3976 13.0403 21.1956 14.9042 20.4236C16.768 19.6515 18.361 18.3442 19.4818 16.6668C20.6026 14.9894 21.2008 13.0174 21.2008 11C21.2008 9.6605 20.9369 8.33414 20.4243 7.09661C19.9118 5.85909 19.1604 4.73466 18.2133 3.7875C17.2661 2.84034 16.1417 2.08901 14.9042 1.57642C13.6666 1.06382 12.3403 0.799988 11.0008 0.799988ZM11.0008 19.16C9.38689 19.16 7.80923 18.6814 6.46733 17.7848C5.12543 16.8881 4.07954 15.6137 3.46193 14.1227C2.84432 12.6316 2.68272 10.9909 2.99758 9.40805C3.31243 7.82516 4.0896 6.37119 5.23079 5.23C6.37199 4.0888 7.82596 3.31164 9.40884 2.99678C10.9917 2.68192 12.6324 2.84352 14.1235 3.46113C15.6145 4.07874 16.8889 5.12463 17.7856 6.46653C18.6822 7.80844 19.1608 9.38609 19.1608 11C19.1608 13.1642 18.3011 15.2397 16.7708 16.77C15.2405 18.3003 13.1649 19.16 11.0008 19.16Z" fill="#CCE6E7"/>
<path d="M19.16 11H21.2C21.2 9.6605 20.9362 8.33414 20.4236 7.09661C19.911 5.85909 19.1596 4.73466 18.2125 3.7875C17.2653 2.84034 16.1409 2.08901 14.9034 1.57642C13.6658 1.06382 12.3395 0.799988 11 0.799988V2.83999C13.1642 2.83999 15.2397 3.6997 16.77 5.23C18.3003 6.76029 19.16 8.83582 19.16 11Z" fill="#CCE6E7"/>
</svg>
