<svg width="23" height="28" viewBox="0 0 23 28" fill="none" xmlns="http://www.w3.org/2000/svg">
<path d="M0.558594 23.7273V21.5471H3.42292V11.0097C3.42292 9.02339 4.02586 7.27297 5.23174 5.7585C6.43666 4.24499 7.98197 3.27022 9.86765 2.83419V1.81679C9.86765 1.30809 10.0409 0.877873 10.3875 0.526142C10.7331 0.175381 11.1566 0 11.6578 0C12.1591 0 12.5825 0.175381 12.9282 0.526142C13.2748 0.877873 13.4481 1.30809 13.4481 1.81679V2.83419C15.3337 3.27022 16.8795 4.24499 18.0854 5.7585C19.2903 7.27297 19.8928 9.02339 19.8928 11.0097V21.5471H22.7571V23.7273H0.558594ZM11.6578 27.9786C10.9418 27.9786 10.3331 27.7242 9.83184 27.2155C9.33059 26.7068 9.07996 26.0891 9.07996 25.3624H14.2357C14.2357 26.0891 13.9851 26.7068 13.4839 27.2155C12.9826 27.7242 12.3739 27.9786 11.6578 27.9786ZM5.57116 21.5471H17.7445V11.0097C17.7445 9.28985 17.1535 7.83012 15.9715 6.63056C14.7905 5.43196 13.3526 4.83266 11.6578 4.83266C9.96312 4.83266 8.52523 5.43196 7.34418 6.63056C6.16217 7.83012 5.57116 9.28985 5.57116 11.0097V21.5471Z" fill="#2F2F2A"/>
</svg>
