<svg width="26" height="25" viewBox="0 0 26 25" fill="none" xmlns="http://www.w3.org/2000/svg">
<path d="M9.5625 21.3327C9.5625 23.0056 10.9969 24.3743 12.75 24.3743C14.5031 24.3743 15.9375 23.0056 15.9375 21.3327V15.2493H22.3125C24.0656 15.2493 25.5 13.8806 25.5 12.2077C25.5 10.5348 24.0656 9.16602 22.3125 9.16602H15.9375V3.08268C15.9375 1.40977 14.5031 0.0410156 12.75 0.0410156C10.9969 0.0410156 9.5625 1.40977 9.5625 3.08268V9.16602H3.1875C1.43437 9.16602 0 10.5348 0 12.2077C0 13.8806 1.43437 15.2493 3.1875 15.2493H9.5625V21.3327Z" fill="#323232"/>
</svg>
