<svg width="28" height="28" viewBox="0 0 28 28" fill="none" xmlns="http://www.w3.org/2000/svg">
<path d="M16.3266 26.9612C15.9209 27.373 15.4139 27.5789 14.8057 27.5789C14.1965 27.5789 13.6891 27.373 13.2833 26.9612L0.680277 14.171C0.465452 13.9529 0.298367 13.7107 0.17902 13.4442C0.0596734 13.1778 0 12.8871 0 12.5722V2.18015C0 1.57455 0.209096 1.06004 0.627287 0.636603C1.04452 0.212201 1.55151 0 2.14824 0H12.3882C12.6746 0 12.9553 0.0605597 13.2303 0.181679C13.5043 0.302798 13.7368 0.460253 13.9278 0.654044L26.5308 13.4442C26.9605 13.8803 27.1753 14.4069 27.1753 15.0241C27.1753 15.6423 26.9724 16.1573 26.5666 16.5691L16.3266 26.9612ZM14.7871 25.4351L25.027 15.043L12.3882 2.18015H2.14824V12.5722L14.7871 25.4351ZM5.72865 7.63052C6.22991 7.63052 6.65382 7.45465 7.00041 7.10292C7.34604 6.75216 7.51885 6.32243 7.51885 5.81373C7.51885 5.30503 7.34604 4.87481 7.00041 4.52308C6.65382 4.17232 6.22991 3.99694 5.72865 3.99694C5.22739 3.99694 4.80395 4.17232 4.45832 4.52308C4.11174 4.87481 3.93845 5.30503 3.93845 5.81373C3.93845 6.32243 4.11174 6.75216 4.45832 7.10292C4.80395 7.45465 5.22739 7.63052 5.72865 7.63052Z" fill="#2F2F2A"/>
</svg>
