<svg width="32" height="32" viewBox="0 0 32 32" fill="none" xmlns="http://www.w3.org/2000/svg">
<path d="M18.7077 30.44C18.2427 30.905 17.6618 31.1375 16.9649 31.1375C16.2669 31.1375 15.6855 30.905 15.2205 30.44L0.779487 15.999C0.533333 15.7529 0.34188 15.4794 0.205128 15.1785C0.0683761 14.8777 0 14.5494 0 14.1939V2.46056C0 1.7768 0.23959 1.19588 0.718769 0.717793C1.19685 0.238613 1.77778 -0.000976562 2.46154 -0.000976562H14.1949C14.5231 -0.000976562 14.8447 0.0673995 15.1598 0.204152C15.4738 0.340904 15.7402 0.518682 15.959 0.737485L30.4 15.1785C30.8923 15.6708 31.1385 16.2654 31.1385 16.9623C31.1385 17.6603 30.906 18.2418 30.441 18.7067L18.7077 30.44ZM16.9436 28.717L28.6769 16.9836L14.1949 2.46056H2.46154V14.1939L16.9436 28.717ZM6.5641 8.61441C7.13846 8.61441 7.62421 8.41584 8.02133 8.01872C8.41737 7.62268 8.61538 7.13748 8.61538 6.56313C8.61538 5.98877 8.41737 5.50302 8.02133 5.1059C7.62421 4.70986 7.13846 4.51184 6.5641 4.51184C5.98974 4.51184 5.50455 4.70986 5.10851 5.1059C4.71138 5.50302 4.51282 5.98877 4.51282 6.56313C4.51282 7.13748 4.71138 7.62268 5.10851 8.01872C5.50455 8.41584 5.98974 8.61441 6.5641 8.61441Z" fill="#077369"/>
</svg>
