<svg width="20" height="20" viewBox="0 0 20 20" fill="none" xmlns="http://www.w3.org/2000/svg">
<path d="M17.4289 10.98C17.4689 10.66 17.4989 10.34 17.4989 10C17.4989 9.66 17.4689 9.34 17.4289 9.02L19.5389 7.37C19.7289 7.22 19.7789 6.95 19.6589 6.73L17.6589 3.27C17.5689 3.11 17.3989 3.02 17.2189 3.02C17.1589 3.02 17.0989 3.03 17.0489 3.05L14.5589 4.05C14.0389 3.65 13.4789 3.32 12.8689 3.07L12.4889 0.42C12.4589 0.18 12.2489 0 11.9989 0H7.99886C7.74886 0 7.53886 0.18 7.50886 0.42L7.12886 3.07C6.51886 3.32 5.95886 3.66 5.43886 4.05L2.94886 3.05C2.88886 3.03 2.82886 3.02 2.76886 3.02C2.59886 3.02 2.42886 3.11 2.33886 3.27L0.338863 6.73C0.208863 6.95 0.268863 7.22 0.458863 7.37L2.56886 9.02C2.52886 9.34 2.49886 9.67 2.49886 10C2.49886 10.33 2.52886 10.66 2.56886 10.98L0.458863 12.63C0.268863 12.78 0.218863 13.05 0.338863 13.27L2.33886 16.73C2.42886 16.89 2.59886 16.98 2.77886 16.98C2.83886 16.98 2.89886 16.97 2.94886 16.95L5.43886 15.95C5.95886 16.35 6.51886 16.68 7.12886 16.93L7.50886 19.58C7.53886 19.82 7.74886 20 7.99886 20H11.9989C12.2489 20 12.4589 19.82 12.4889 19.58L12.8689 16.93C13.4789 16.68 14.0389 16.34 14.5589 15.95L17.0489 16.95C17.1089 16.97 17.1689 16.98 17.2289 16.98C17.3989 16.98 17.5689 16.89 17.6589 16.73L19.6589 13.27C19.7789 13.05 19.7289 12.78 19.5389 12.63L17.4289 10.98ZM15.4489 9.27C15.4889 9.58 15.4989 9.79 15.4989 10C15.4989 10.21 15.4789 10.43 15.4489 10.73L15.3089 11.86L16.1989 12.56L17.2789 13.4L16.5789 14.61L15.3089 14.1L14.2689 13.68L13.3689 14.36C12.9389 14.68 12.5289 14.92 12.1189 15.09L11.0589 15.52L10.8989 16.65L10.6989 18H9.29886L9.10886 16.65L8.94886 15.52L7.88886 15.09C7.45886 14.91 7.05886 14.68 6.65886 14.38L5.74886 13.68L4.68886 14.11L3.41886 14.62L2.71886 13.41L3.79886 12.57L4.68886 11.87L4.54886 10.74C4.51886 10.43 4.49886 10.2 4.49886 10C4.49886 9.8 4.51886 9.57 4.54886 9.27L4.68886 8.14L3.79886 7.44L2.71886 6.6L3.41886 5.39L4.68886 5.9L5.72886 6.32L6.62886 5.64C7.05886 5.32 7.46886 5.08 7.87886 4.91L8.93886 4.48L9.09886 3.35L9.29886 2H10.6889L10.8789 3.35L11.0389 4.48L12.0989 4.91C12.5289 5.09 12.9289 5.32 13.3289 5.62L14.2389 6.32L15.2989 5.89L16.5689 5.38L17.2689 6.59L16.1989 7.44L15.3089 8.14L15.4489 9.27ZM9.99886 6C7.78886 6 5.99886 7.79 5.99886 10C5.99886 12.21 7.78886 14 9.99886 14C12.2089 14 13.9989 12.21 13.9989 10C13.9989 7.79 12.2089 6 9.99886 6ZM9.99886 12C8.89886 12 7.99886 11.1 7.99886 10C7.99886 8.9 8.89886 8 9.99886 8C11.0989 8 11.9989 8.9 11.9989 10C11.9989 11.1 11.0989 12 9.99886 12Z" fill="#323232"/>
</svg>
