<svg width="65" height="55" viewBox="0 0 65 55" fill="none" xmlns="http://www.w3.org/2000/svg">
<path d="M57.9375 6.24935H47.8331L43.8806 2.1431C42.7013 0.896016 40.98 0.166016 39.195 0.166016H18.795C19.3369 1.07852 19.6875 2.08227 19.6875 3.20768C19.6875 6.55352 16.8188 9.29102 13.3125 9.29102H10.125V12.3327C10.125 15.6785 7.25625 18.416 3.75 18.416C2.57063 18.416 1.51875 18.0814 0.5625 17.5643V48.8327C0.5625 52.1785 3.43125 54.916 6.9375 54.916H57.9375C61.4437 54.916 64.3125 52.1785 64.3125 48.8327V12.3327C64.3125 8.98685 61.4437 6.24935 57.9375 6.24935ZM32.4375 45.791C23.64 45.791 16.5 38.9777 16.5 30.5827C16.5 22.1877 23.64 15.3743 32.4375 15.3743C41.235 15.3743 48.375 22.1877 48.375 30.5827C48.375 38.9777 41.235 45.791 32.4375 45.791Z" fill="#323232"/>
</svg>
